<?xml version="1.0" encoding="UTF-8" standalone="no"?>
<!-- Created with Inkscape (http://www.inkscape.org/) -->

<svg
   xmlns:dc="http://purl.org/dc/elements/1.1/"
   xmlns:cc="http://creativecommons.org/ns#"
   xmlns:rdf="http://www.w3.org/1999/02/22-rdf-syntax-ns#"
   xmlns:svg="http://www.w3.org/2000/svg"
   xmlns="http://www.w3.org/2000/svg"
   xmlns:sodipodi="http://sodipodi.sourceforge.net/DTD/sodipodi-0.dtd"
   xmlns:inkscape="http://www.inkscape.org/namespaces/inkscape"
   id="svg4155"
   version="1.1"
   inkscape:version="0.91 r13725"
   xml:space="preserve"
   width="156.25"
   height="180.00125"
   viewBox="0 0 156.25 180.00125"
   sodipodi:docname="CfKA Hexagon.svg"><metadata
     id="metadata4161"><rdf:RDF><cc:Work
         rdf:about=""><dc:format>image/svg+xml</dc:format><dc:type
           rdf:resource="http://purl.org/dc/dcmitype/StillImage" /><dc:title></dc:title></cc:Work></rdf:RDF></metadata><defs
     id="defs4159"><clipPath
       clipPathUnits="userSpaceOnUse"
       id="clipPath4177"><path
         d="m 30,21 138.001,0 0,156.001 L 30,177.001 30,21 Z"
         id="path4179"
         inkscape:connector-curvature="0" /></clipPath></defs><sodipodi:namedview
     pagecolor="#ffffff"
     bordercolor="#666666"
     borderopacity="1"
     objecttolerance="10"
     gridtolerance="10"
     guidetolerance="10"
     inkscape:pageopacity="0"
     inkscape:pageshadow="2"
     inkscape:window-width="1280"
     inkscape:window-height="736"
     id="namedview4157"
     showgrid="false"
     fit-margin-top="0"
     fit-margin-left="0"
     fit-margin-right="0"
     fit-margin-bottom="0"
     inkscape:zoom="2.09651"
     inkscape:cx="78.484625"
     inkscape:cy="90.000754"
     inkscape:window-x="0"
     inkscape:window-y="27"
     inkscape:window-maximized="1"
     inkscape:current-layer="g4163" /><g
     id="g4163"
     inkscape:groupmode="layer"
     inkscape:label="CfKA Hexagon"
     transform="matrix(1.25,0,0,-1.25,-45.531,214.01612)"><g
       id="g4165"
       transform="translate(161.4248,63.2119)"><path
         d="m 0,0 -62.5,-36 -62.5,36 0,72.001 62.5,36 L 0,72.001 0,0 Z"
         style="fill:#0c0c0b;fill-opacity:1;fill-rule:nonzero;stroke:none"
         id="path4167"
         inkscape:connector-curvature="0" /></g><g
       id="g4169"
       transform="translate(157.4248,65.3789)"><path
         d="M 0,0 -58.5,-33.834 -117,0 -117,67.667 -58.5,101.5 0,67.667 0,0 Z"
         style="fill:none;stroke:#ffffff;stroke-width:2;stroke-linecap:butt;stroke-linejoin:miter;stroke-miterlimit:10;stroke-dasharray:none;stroke-opacity:1"
         id="path4171"
         inkscape:connector-curvature="0" /></g><g
       id="g4173"><g
         id="g4175"
         clip-path="url(#clipPath4177)"><g
           id="g4181"
           transform="translate(81.9546,67.4248)"><path
             d="m 0,0 0,0 c 0,2.762 2.239,5 5,5 l 25,0 c 2.761,0 5,-2.238 5,-5"
             style="fill:#0c0c0b;fill-opacity:1;fill-rule:nonzero;stroke:#ffffff;stroke-width:2;stroke-linecap:butt;stroke-linejoin:miter;stroke-miterlimit:10;stroke-dasharray:none;stroke-opacity:1"
             id="path4183"
             inkscape:connector-curvature="0" /></g><path
           d="m 121.925,54.925 -46,0 0,12 46,0 0,-12 z"
           style="fill:#0c0c0b;fill-opacity:1;fill-rule:nonzero;stroke:#ffffff;stroke-width:1;stroke-linecap:butt;stroke-linejoin:miter;stroke-miterlimit:10;stroke-dasharray:none;stroke-opacity:1"
           id="path4185"
           inkscape:connector-curvature="0" /><g
           id="g4187"
           transform="translate(79.4707,64.1777)"><path
             d="M 0,0 0,-2.688 2.499,0 3.838,0 1.019,-3.128 l 3.048,-3.868 -1.409,0 -2.658,3.429 0,-3.429 -1.1,0 L -1.1,0 0,0 Z"
             style="fill:#ffffff;fill-opacity:1;fill-rule:nonzero;stroke:none"
             id="path4189"
             inkscape:connector-curvature="0" /></g><g
           id="g4191"
           transform="translate(85.7407,58.0205)"><path
             d="m 0,0 c 0.64,0 1.319,0.41 1.319,1.279 l 0,0.112 -0.909,0 C -0.23,1.391 -0.63,1.09 -0.63,0.61 -0.63,0.271 -0.44,0 0,0 m 0.45,2.26 0.869,0 0,0.219 c 0,0.63 -0.45,0.88 -0.979,0.88 -0.41,0 -0.77,-0.22 -0.94,-0.67 l -0.949,0.2 c 0.21,0.849 0.929,1.389 1.899,1.389 1.169,0 2.008,-0.509 2.008,-1.989 l 0,-3.128 -0.879,0 -0.1,0.659 C 1.049,-0.639 0.53,-0.919 -0.18,-0.919 c -0.84,0 -1.549,0.48 -1.549,1.529 0,1.04 0.889,1.65 2.179,1.65"
             style="fill:#ffffff;fill-opacity:1;fill-rule:nonzero;stroke:none"
             id="path4193"
             inkscape:connector-curvature="0" /></g><g
           id="g4195"
           transform="translate(89.3813,57.1816)"><path
             d="m 0,0 0,5.037 1.04,0 0,-0.839 c 0.349,0.6 0.949,0.919 1.489,0.919 0.27,0 0.49,-0.059 0.639,-0.12 L 2.988,4.048 C 2.829,4.147 2.609,4.198 2.399,4.198 1.729,4.198 1.04,3.458 1.04,1.869 L 1.04,0 0,0 Z"
             style="fill:#ffffff;fill-opacity:1;fill-rule:nonzero;stroke:none"
             id="path4197"
             inkscape:connector-curvature="0" /></g><path
           d="m 94.501,57.182 -1.04,0 0,7.076 1.04,0 0,-7.076 z"
           style="fill:#ffffff;fill-opacity:1;fill-rule:nonzero;stroke:none"
           id="path4199"
           inkscape:connector-curvature="0" /><g
           id="g4201"
           transform="translate(98.9302,61.499)"><path
             d="m 0,0 -0.66,-0.58 c -0.25,0.32 -0.56,0.461 -0.88,0.461 -0.259,0 -0.499,-0.17 -0.499,-0.5 0,-0.36 0.38,-0.52 0.899,-0.72 0.68,-0.261 1.41,-0.559 1.41,-1.46 0,-0.869 -0.67,-1.598 -1.749,-1.598 -1.04,0 -1.689,0.719 -1.949,1.349 l 0.879,0.48 c 0.2,-0.45 0.55,-0.911 1.11,-0.911 0.399,0 0.679,0.202 0.679,0.661 0,0.439 -0.61,0.56 -1.199,0.809 -0.58,0.24 -1.08,0.611 -1.08,1.38 0,0.779 0.64,1.429 1.55,1.429 C -0.88,0.8 -0.32,0.5 0,0"
             style="fill:#ffffff;fill-opacity:1;fill-rule:nonzero;stroke:none"
             id="path4203"
             inkscape:connector-curvature="0" /></g><g
           id="g4205"
           transform="translate(100.1113,57.1816)"><path
             d="m 0,0 0,5.037 1.04,0 0,-0.839 c 0.349,0.6 0.949,0.919 1.489,0.919 0.27,0 0.49,-0.059 0.639,-0.12 L 2.988,4.048 C 2.829,4.147 2.609,4.198 2.399,4.198 1.729,4.198 1.04,3.458 1.04,1.869 L 1.04,0 0,0 Z"
             style="fill:#ffffff;fill-opacity:1;fill-rule:nonzero;stroke:none"
             id="path4207"
             inkscape:connector-curvature="0" /></g><g
           id="g4209"
           transform="translate(107.25,57.1816)"><path
             d="M 0,0 0,0.859 C -0.36,0.26 -0.959,-0.08 -1.629,-0.08 c -0.88,0 -1.479,0.53 -1.479,1.509 l 0,3.608 1.039,0 0,-3.278 c 0,-0.68 0.31,-0.92 0.779,-0.92 0.65,0 1.29,0.769 1.29,2.16 l 0,2.038 1.04,0 L 1.04,0 0,0 Z"
             style="fill:#ffffff;fill-opacity:1;fill-rule:nonzero;stroke:none"
             id="path4211"
             inkscape:connector-curvature="0" /></g><g
           id="g4213"
           transform="translate(110.8408,64.2578)"><path
             d="m 0,0 0,-2.898 c 0.36,0.519 0.939,0.939 1.699,0.939 0.929,0 1.489,-0.499 1.489,-1.569 l 0,-3.548 -1.039,0 0,3.278 c 0,0.77 -0.32,0.92 -0.79,0.92 C 0.79,-2.878 0,-3.608 0,-4.947 l 0,-2.129 -1.04,0 L -1.04,0 0,0 Z"
             style="fill:#ffffff;fill-opacity:1;fill-rule:nonzero;stroke:none"
             id="path4215"
             inkscape:connector-curvature="0" /></g><g
           id="g4217"
           transform="translate(116.231,60.2803)"><path
             d="M 0,0 2.449,0 C 2.359,0.56 1.979,1.1 1.229,1.1 0.54,1.1 0.11,0.629 0,0 m 3.548,-0.869 -3.568,0 c 0,-0.74 0.43,-1.391 1.249,-1.391 0.54,0 1.06,0.301 1.32,0.85 L 3.438,-1.76 C 2.949,-2.709 2.379,-3.179 1.229,-3.179 c -1.659,0 -2.348,1.4 -2.348,2.599 0,1.199 0.689,2.599 2.348,2.599 1.61,0 2.319,-1.31 2.319,-2.439 l 0,-0.449 z"
             style="fill:#ffffff;fill-opacity:1;fill-rule:nonzero;stroke:none"
             id="path4219"
             inkscape:connector-curvature="0" /></g><g
           id="g4221"
           transform="translate(72.5171,118.9873)"><path
             d="m 0,0 -13,2 7,-14.615 -13.125,-7.115 12.75,-7.52 L -13,-42 0,-40"
             style="fill:none;stroke:#ffffff;stroke-width:2;stroke-linecap:butt;stroke-linejoin:miter;stroke-miterlimit:10;stroke-dasharray:none;stroke-opacity:1"
             id="path4223"
             inkscape:connector-curvature="0" /></g><g
           id="g4225"
           transform="translate(153.4248,108.4248)"><path
             d="m 0,0 -52.155,-14 c -1.831,0 -3.845,1.771 -3.845,3.604 l 0,0.369 c 0,1.83 2.014,3.027 3.845,3.027 L 0,7"
             style="fill:#0c0c0b;fill-opacity:1;fill-rule:nonzero;stroke:#ffffff;stroke-width:2;stroke-linecap:butt;stroke-linejoin:miter;stroke-miterlimit:10;stroke-dasharray:none;stroke-opacity:1"
             id="path4227"
             inkscape:connector-curvature="0" /></g><path
           d="m 108.425,87.425 -19,0 0,24 19,0 0,-24 z"
           style="fill:#0c0c0b;fill-opacity:1;fill-rule:nonzero;stroke:#ffffff;stroke-width:2;stroke-linecap:butt;stroke-linejoin:miter;stroke-miterlimit:10;stroke-dasharray:none;stroke-opacity:1"
           id="path4229"
           inkscape:connector-curvature="0" /><g
           id="g4231"
           transform="translate(111.4248,114.9248)"><path
             d="m 0,0 c 0,-1.932 -1.567,-3.5 -3.5,-3.5 l -18,0 c -1.933,0 -3.5,1.568 -3.5,3.5 0,1.934 1.567,3.5 3.5,3.5 l 18,0 C -1.567,3.5 0,1.934 0,0"
             style="fill:#0c0c0b;fill-opacity:1;fill-rule:nonzero;stroke:none"
             id="path4233"
             inkscape:connector-curvature="0" /></g><g
           id="g4235"
           transform="translate(111.4248,114.9248)"><path
             d="m 0,0 c 0,-1.932 -1.567,-3.5 -3.5,-3.5 l -18,0 c -1.933,0 -3.5,1.568 -3.5,3.5 0,1.934 1.567,3.5 3.5,3.5 l 18,0 C -1.567,3.5 0,1.934 0,0 Z"
             style="fill:none;stroke:#ffffff;stroke-width:2;stroke-linecap:butt;stroke-linejoin:miter;stroke-miterlimit:10;stroke-dasharray:none;stroke-opacity:1"
             id="path4237"
             inkscape:connector-curvature="0" /></g><g
           id="g4239"
           transform="translate(111.4248,83.9248)"><path
             d="m 0,0 c 0,-1.932 -1.567,-3.5 -3.5,-3.5 l -18,0 c -1.933,0 -3.5,1.568 -3.5,3.5 0,1.934 1.567,3.5 3.5,3.5 l 18,0 C -1.567,3.5 0,1.934 0,0"
             style="fill:#0c0c0b;fill-opacity:1;fill-rule:nonzero;stroke:none"
             id="path4241"
             inkscape:connector-curvature="0" /></g><g
           id="g4243"
           transform="translate(111.4248,83.9248)"><path
             d="m 0,0 c 0,-1.932 -1.567,-3.5 -3.5,-3.5 l -18,0 c -1.933,0 -3.5,1.568 -3.5,3.5 0,1.934 1.567,3.5 3.5,3.5 l 18,0 C -1.567,3.5 0,1.934 0,0 Z"
             style="fill:none;stroke:#ffffff;stroke-width:2;stroke-linecap:butt;stroke-linejoin:miter;stroke-miterlimit:10;stroke-dasharray:none;stroke-opacity:1"
             id="path4245"
             inkscape:connector-curvature="0" /></g><g
           id="g4247"
           transform="translate(89.4248,91.4248)"><path
             d="M 0,0 19,0"
             style="fill:none;stroke:#ffffff;stroke-width:2;stroke-linecap:butt;stroke-linejoin:miter;stroke-miterlimit:10;stroke-dasharray:none;stroke-opacity:1"
             id="path4249"
             inkscape:connector-curvature="0" /></g><g
           id="g4251"
           transform="translate(89.4248,107.4248)"><path
             d="M 0,0 19,0"
             style="fill:none;stroke:#ffffff;stroke-width:2;stroke-linecap:butt;stroke-linejoin:miter;stroke-miterlimit:10;stroke-dasharray:none;stroke-opacity:1"
             id="path4253"
             inkscape:connector-curvature="0" /></g><g
           id="g4255"
           transform="translate(152.9248,68.3896)"><path
             d="M 0,0 -54,-31.227 -108,0 -108,62.452 -54,93.678 0,62.452 0,0 Z"
             style="fill:none;stroke:#ffffff;stroke-width:1;stroke-linecap:butt;stroke-linejoin:miter;stroke-miterlimit:10;stroke-dasharray:none;stroke-opacity:1"
             id="path4257"
             inkscape:connector-curvature="0" /></g><g
           id="g4259"
           transform="translate(95.9369,132.0728)"><path
             d="m 0,0 c -0.276,0.179 -0.477,0.239 -0.717,0.239 -0.425,0 -0.657,-0.266 -0.657,-0.84 l 0,-0.293 1.736,0 0,-0.674 -1.736,0 0,-3.791 -0.743,0 0,3.791 -1.258,0 0,0.674 1.258,0 0,0.273 c 0,1.082 0.523,1.534 1.372,1.534 0.408,0 0.683,-0.105 0.931,-0.257 L 0,0 Z"
             style="fill:#ffffff;fill-opacity:1;fill-rule:nonzero;stroke:none"
             id="path4261"
             inkscape:connector-curvature="0" /></g><g
           id="g4263"
           transform="translate(99.5197,127.3155)"><path
             d="M 0,0 C 0.912,0 1.435,0.771 1.435,1.631 1.435,2.49 0.912,3.261 0,3.261 -0.913,3.261 -1.436,2.49 -1.436,1.631 -1.436,0.771 -0.913,0 0,0 M 0,3.935 C 1.364,3.935 2.196,2.862 2.196,1.631 2.196,0.4 1.364,-0.674 0,-0.674 c -1.365,0 -2.199,1.074 -2.199,2.305 0,1.231 0.834,2.304 2.199,2.304"
             style="fill:#ffffff;fill-opacity:1;fill-rule:nonzero;stroke:none"
             id="path4265"
             inkscape:connector-curvature="0" /></g><g
           id="g4267"
           transform="translate(106.033,129.7613)"><path
             d="m 0,0 c -0.061,0.514 -0.328,0.816 -0.86,0.816 -0.779,0 -1.514,-0.736 -1.514,-2.252 l 0,-1.612 -0.744,0 0,4.465 0.744,0 0,-0.823 C -2.029,1.135 -1.47,1.489 -0.725,1.489 0.16,1.489 0.693,0.956 0.745,0 L 0,0 Z"
             style="fill:#ffffff;fill-opacity:1;fill-rule:nonzero;stroke:none"
             id="path4269"
             inkscape:connector-curvature="0" /></g><g
           id="g4271"
           transform="translate(93.6903,146.2076)"><path
             d="m 0,0 0,-0.149 0,-9.418 0.788,0 0.22,0 0.187,0 L 1.195,0 0,0 Z"
             style="fill:#ffffff;fill-opacity:1;fill-rule:nonzero;stroke:none"
             id="path4273"
             inkscape:connector-curvature="0" /></g><g
           id="g4275"
           transform="translate(98.4317,135.7436)"><path
             d="m 0,0 c 0.084,0 0.191,0.075 0.191,0.155 l 0,11.206 C 0.191,11.442 0.084,11.51 0,11.51 l -3.734,0 c -0.081,0 -0.111,-0.032 -0.111,-0.075 l 0,-0.223 0,-0.748 c 0,-0.081 0.03,-0.151 0.111,-0.151 l 2.539,0 c 0.084,0 0.19,-0.065 0.19,-0.146 l 0,-8.817 c 0,-0.081 -0.106,-0.153 -0.19,-0.153 l -2.539,0 c -0.081,0 -0.111,-0.028 -0.111,-0.07 l 0,-0.224 0,-0.748 C -3.845,0.075 -3.815,0 -3.734,0 L 0,0 Z"
             style="fill:#ffffff;fill-opacity:1;fill-rule:nonzero;stroke:none"
             id="path4277"
             inkscape:connector-curvature="0" /></g><g
           id="g4279"
           transform="translate(100.117,146.2076)"><path
             d="m 0,0 0,-0.149 0,-9.418 1.005,0 0.193,0 L 1.198,0 0,0 Z"
             style="fill:#ffffff;fill-opacity:1;fill-rule:nonzero;stroke:none"
             id="path4281"
             inkscape:connector-curvature="0" /></g><g
           id="g4283"
           transform="translate(101.1646,135.7493)"><path
             d="m 0,0 0,1.197 c 1.645,0 2.791,2.043 2.791,4.557 0,2.511 -1.146,4.556 -2.791,4.556 l 0,1.194 c 2.243,0 3.985,-2.58 3.985,-5.75 C 3.985,2.581 2.243,0 0,0"
             style="fill:#ffffff;fill-opacity:1;fill-rule:nonzero;stroke:none"
             id="path4285"
             inkscape:connector-curvature="0" /></g><g
           id="g4287"
           transform="translate(88.7584,139.4259)"><path
             d="m 0,0 0,-1.647 0,-0.532 c 0,-0.894 0.572,-1.503 1.475,-1.503 l 0.254,0 0.733,0 0.862,0 c 0.043,0 0.113,0.075 0.113,0.155 l 0,0.898 c 0,0.08 -0.104,0.142 -0.188,0.142 l -0.857,0 -0.439,0 -0.27,0 c -0.387,0 -0.488,0.166 -0.488,0.608 l 0,0.261 0,1.439 0,0.878 c 0,0.9 -0.366,1.232 -0.814,1.396 0.448,0.161 0.814,0.494 0.814,1.393 l 0,0.624 0,1.581 0,0.374 c 0,0.434 0.086,0.564 0.488,0.564 l 0.337,0 0.427,0 0.877,0 c 0.043,0 0.113,0.07 0.113,0.151 l 0,0.897 c 0,0.081 -0.104,0.149 -0.188,0.149 l -0.718,0 -0.675,0 -0.381,0 C 0.572,7.828 0,7.241 0,6.367 L 0,5.898 0,3.944 c 0,0 -0.031,-0.45 -0.052,-0.602 -0.057,-0.405 -0.551,-0.75 -0.86,-0.746 l -0.468,0 c -0.083,0 -0.115,-0.063 -0.115,-0.146 l 0,-0.897 c 0,-0.081 0.032,-0.154 0.115,-0.154 l 0.427,0 C -0.56,1.405 -0.066,1.077 -0.03,0.584 -0.018,0.442 0,0 0,0"
             style="fill:#ffffff;fill-opacity:1;fill-rule:nonzero;stroke:none"
             id="path4289"
             inkscape:connector-curvature="0" /></g><g
           id="g4291"
           transform="translate(94.6975,147.2538)"><path
             d="m 0,0 -0.424,0 -0.47,0 c -0.084,0 -0.114,-0.068 -0.114,-0.149 l 0,-0.277 0,-0.62 0,-0.151 0.114,0 0.894,0 0.188,0 0,0.151 0,0.897 L 0.188,0 0,0 Z"
             style="fill:#ffffff;fill-opacity:1;fill-rule:nonzero;stroke:none"
             id="path4293"
             inkscape:connector-curvature="0" /></g><g
           id="g4295"
           transform="translate(93.6903,136.7969)"><path
             d="m 0,0 0,-0.424 0,-0.473 c 0,-0.081 0.03,-0.156 0.112,-0.156 l 0.275,0 0.621,0 0.187,0 0,0.156 0,0.897 0,0.143 -0.187,0 -0.896,0 L 0,0.143 0,0 Z"
             style="fill:#ffffff;fill-opacity:1;fill-rule:nonzero;stroke:none"
             id="path4297"
             inkscape:connector-curvature="0" /></g><g
           id="g4299"
           transform="translate(101.1213,147.2538)"><path
             d="m 0,0 -0.421,0 -0.473,0 c -0.084,0 -0.111,-0.068 -0.111,-0.149 l 0,-0.277 0,-0.62 0,-0.151 0.111,0 0.894,0 0.194,0 0,0.151 0,0.897 L 0.194,0 0,0 Z"
             style="fill:#ffffff;fill-opacity:1;fill-rule:nonzero;stroke:none"
             id="path4301"
             inkscape:connector-curvature="0" /></g><g
           id="g4303"
           transform="translate(100.117,136.7969)"><path
             d="m 0,0 0,-0.424 0,-0.473 c 0,-0.081 0.027,-0.156 0.109,-0.156 l 0.275,0 0.621,0 0.193,0 0,0.156 0,0.897 0,0.143 -0.193,0 -0.896,0 L 0,0.143 0,0 Z"
             style="fill:#ffffff;fill-opacity:1;fill-rule:nonzero;stroke:none"
             id="path4305"
             inkscape:connector-curvature="0" /></g><g
           id="g4307"
           transform="translate(107.5914,139.4259)"><path
             d="m 0,0 0,-1.647 0,-0.532 c 0,-0.894 0.563,-1.503 1.466,-1.503 l 0.254,0 0.733,0 0.863,0 c 0.04,0 0.121,0.075 0.121,0.155 l 0,0.898 c 0,0.08 -0.113,0.142 -0.197,0.142 l -0.857,0 -0.439,0 -0.27,0 c -0.387,0 -0.479,0.166 -0.479,0.608 l 0,0.261 0,1.439 0,0.878 c 0,0.288 -0.084,0.551 -0.15,0.7 l -2.005,0 C -0.409,1.25 -0.176,1.053 -0.061,0.575 -0.006,0.335 0,0 0,0"
             style="fill:#ffffff;fill-opacity:1;fill-rule:nonzero;stroke:none"
             id="path4309"
             inkscape:connector-curvature="0" /></g><g
           id="g4311"
           transform="translate(107.5077,142.7677)"><path
             d="m 0,0 c -0.115,-0.392 -0.375,-0.595 -0.836,-0.746 l 1.884,0 c 0.115,0.298 0.23,0.498 0.23,0.895 l 0,0.621 0,1.581 0,0.375 c 0,0.434 0.078,0.564 0.479,0.564 l 0.338,0 0.427,0 0.878,0 c 0.04,0 0.121,0.068 0.121,0.15 l 0,0.898 c 0,0.08 -0.112,0.148 -0.197,0.148 l -0.718,0 -0.675,0 -0.381,0 C 0.646,4.486 0.084,3.901 0.084,3.025 l 0,-0.469 0,-1.955 C 0.084,0.601 0.058,0.197 0,0"
             style="fill:#ffffff;fill-opacity:1;fill-rule:nonzero;stroke:none"
             id="path4313"
             inkscape:connector-curvature="0" /></g><g
           id="g4315"
           transform="translate(107.7991,141.4143)"><path
             d="m 0,0 c 0.303,-0.109 0.632,-0.288 0.836,-0.588 l 2.197,0 c 0.083,0 0.197,0.071 0.197,0.152 l 0,0.897 c 0,0.083 -0.114,0.148 -0.197,0.148 l -2.276,0 C 0.606,0.309 0.248,0.092 0,0"
             style="fill:#ffffff;fill-opacity:1;fill-rule:nonzero;stroke:none"
             id="path4317"
             inkscape:connector-curvature="0" /></g><g
           id="g4319"
           transform="translate(106.2004,142.0217)"><path
             d="m 0,0 c -0.081,0 -0.103,-0.065 -0.103,-0.146 l 0,-0.897 c 0,-0.081 0.022,-0.154 0.103,-0.154 l 0.43,0 2.005,0 C 2.301,-0.895 1.968,-0.691 1.729,-0.598 1.977,-0.507 2.204,-0.298 2.355,0 L 0.47,0 0,0 Z"
             style="fill:#ffffff;fill-opacity:1;fill-rule:nonzero;stroke:none"
             id="path4321"
             inkscape:connector-curvature="0" /></g></g></g></g></svg>